<svg width="24" height="24" viewBox="0 0 24 24" fill="none" xmlns="http://www.w3.org/2000/svg">
  <defs>
    <linearGradient id="manufacturerGradient" x1="0%" y1="0%" x2="100%" y2="100%">
      <stop offset="0%" stop-color="#3b82f6" />
      <stop offset="100%" stop-color="#0ea5e9" />
    </linearGradient>
  </defs>
  
  <!-- Factory building -->
  <path
    d="M3 20V8l4-4h10l4 4v12"
    stroke="url(#manufacturerGradient)"
    stroke-width="1.5"
    stroke-linecap="round"
    stroke-linejoin="round"
    fill="none"
  />
  
  <!-- Roof -->
  <path
    d="M3 8l9-4 9 4"
    stroke="url(#manufacturerGradient)"
    stroke-width="1.5"
    stroke-linecap="round"
    stroke-linejoin="round"
    fill="none"
  />
  
  <!-- Chimneys -->
  <rect x="6" y="4" width="2" height="4" fill="url(#manufacturerGradient)" />
  <rect x="16" y="4" width="2" height="4" fill="url(#manufacturerGradient)" />
  
  <!-- Smoke -->
  <path
    d="M7 4c0-1 1-1 1-1s1 0 1 1"
    stroke="url(#manufacturerGradient)"
    stroke-width="0.8"
    stroke-linecap="round"
    fill="none"
  />
  <path
    d="M17 4c0-1 1-1 1-1s1 0 1 1"
    stroke="url(#manufacturerGradient)"
    stroke-width="0.8"
    stroke-linecap="round"
    fill="none"
  />
  
  <!-- Windows -->
  <rect x="6" y="12" width="3" height="3" rx="0.5" fill="url(#manufacturerGradient)" opacity="0.3" />
  <rect x="15" y="12" width="3" height="3" rx="0.5" fill="url(#manufacturerGradient)" opacity="0.3" />
  
  <!-- Door -->
  <rect x="10.5" y="15" width="3" height="5" rx="0.5" fill="url(#manufacturerGradient)" opacity="0.4" />
  
  <!-- Conveyor belt -->
  <path
    d="M2 20h20"
    stroke="url(#manufacturerGradient)"
    stroke-width="2"
    stroke-linecap="round"
  />
  
  <!-- Packages on conveyor -->
  <rect x="4" y="18" width="2" height="2" rx="0.3" fill="url(#manufacturerGradient)" />
  <rect x="8" y="18" width="2" height="2" rx="0.3" fill="url(#manufacturerGradient)" />
  <rect x="14" y="18" width="2" height="2" rx="0.3" fill="url(#manufacturerGradient)" />
  <rect x="18" y="18" width="2" height="2" rx="0.3" fill="url(#manufacturerGradient)" />
</svg>

